<svg width="41" height="29" viewBox="0 0 41 29" fill="none" xmlns="http://www.w3.org/2000/svg">
<path d="M14.7746 2.8125H26.2255C26.5754 2.8125 26.8616 3.02344 26.8616 3.28125V5.625H14.1384V3.28125C14.1384 3.02344 14.4247 2.8125 14.7746 2.8125ZM10.3215 3.28125V5.625H5.23217C2.42511 5.625 0.142883 7.30664 0.142883 9.375V15H15.4107H25.5893H40.8572V9.375C40.8572 7.30664 38.5749 5.625 35.7679 5.625H30.6786V3.28125C30.6786 1.4707 28.6826 0 26.2255 0H14.7746C12.3174 0 10.3215 1.4707 10.3215 3.28125ZM40.8572 16.875H25.5893V18.75C25.5893 19.7871 24.4522 20.625 23.0447 20.625H17.9554C16.5479 20.625 15.4107 19.7871 15.4107 18.75V16.875H0.142883V24.375C0.142883 26.4434 2.42511 28.125 5.23217 28.125H35.7679C38.5749 28.125 40.8572 26.4434 40.8572 24.375V16.875Z" fill="black"/>
</svg>
